<?xml version="1.0" encoding="UTF-8" standalone="no"?>
<!-- Created with Inkscape (http://www.inkscape.org/) -->

<svg
   xmlns:dc="http://purl.org/dc/elements/1.1/"
   xmlns:cc="http://creativecommons.org/ns#"
   xmlns:rdf="http://www.w3.org/1999/02/22-rdf-syntax-ns#"
   xmlns:svg="http://www.w3.org/2000/svg"
   xmlns="http://www.w3.org/2000/svg"
   xmlns:sodipodi="http://sodipodi.sourceforge.net/DTD/sodipodi-0.dtd"
   xmlns:inkscape="http://www.inkscape.org/namespaces/inkscape"
   width="780"
   height="800"
   id="svg1378"
   sodipodi:version="0.32"
   inkscape:version="0.48.3.1 r9886"
   sodipodi:docname="logo.svg"
   inkscape:output_extension="org.inkscape.output.svg.inkscape"
   sodipodi:modified="true"
   version="1.0">
  <defs
     id="defs1380" />
  <sodipodi:namedview
     id="base"
     pagecolor="#ffffff"
     bordercolor="#666666"
     borderopacity="1.0"
     inkscape:pageopacity="0.0"
     inkscape:pageshadow="2"
     inkscape:zoom="0.49497475"
     inkscape:cx="438.24599"
     inkscape:cy="448.40588"
     inkscape:document-units="px"
     inkscape:current-layer="layer1"
     inkscape:window-width="1301"
     inkscape:window-height="744"
     inkscape:window-x="65"
     inkscape:window-y="24"
     showgrid="false"
     inkscape:window-maximized="1" />
  <metadata
     id="metadata1383">
    <rdf:RDF>
      <cc:Work
         rdf:about="">
        <dc:format>image/svg+xml</dc:format>
        <dc:type
           rdf:resource="http://purl.org/dc/dcmitype/StillImage" />
      </cc:Work>
    </rdf:RDF>
  </metadata>
  <g
     inkscape:label="Livello 1"
     inkscape:groupmode="layer"
     id="layer1"
     transform="translate(-36.387486,-206.05459)">
    <text
       xml:space="preserve"
       style="font-size:20px;font-style:normal;font-variant:normal;font-weight:normal;font-stretch:normal;line-height:125%;letter-spacing:0px;word-spacing:0px;fill:#000080;fill-opacity:1;stroke:none;font-family:LMSansQuot8;-inkscape-font-specification:LMSansQuot8"
       x="424.47964"
       y="917.16119"
       id="text2999"
       sodipodi:linespacing="125%"><tspan
         sodipodi:role="line"
         id="tspan3001"
         x="447.1066"
         y="917.16119"
         style="font-size:70px;font-style:normal;font-variant:normal;font-weight:normal;font-stretch:normal;text-align:center;text-anchor:middle;fill:#000080;font-family:Purisa;-inkscape-font-specification:Purisa">Artifical Intelligence </tspan><tspan
         sodipodi:role="line"
         x="424.47964"
         y="1004.6612"
         style="font-size:70px;font-style:normal;font-variant:normal;font-weight:normal;font-stretch:normal;text-align:center;text-anchor:middle;fill:#000080;font-family:Purisa;-inkscape-font-specification:Purisa"
         id="tspan3003">In Action</tspan></text>
    <path
       style="fill:#000080;fill-opacity:1;stroke:#0d9ad2;stroke-opacity:1"
       id="path3005"
       d="m 97.261639,840.26213 c 24.134301,-23.00278 52.611751,-40.47722 80.267291,-58.81248 27.285,-18.81229 56.22116,-35.83449 79.19039,-60.11148 14.62314,-15.45572 16.12229,-19.50522 27.73329,-37.29226 14.51677,-25.54794 25.89937,-52.81806 34.41589,-80.92752 4.68239,-15.45458 5.81375,-21.51291 9.41064,-37.08196 7.0035,-29.94769 9.39225,-60.57538 10.71625,-91.20768 1.2018,-33.77853 1.12303,-67.56881 0.13568,-101.34828 -1.06856,-17.60905 -0.42831,-35.44439 -4.06893,-52.78442 -1.78007,-7.4637 -4.41591,-14.64411 -5.72071,-22.22054 -1.10746,-7.21266 -0.98514,-14.5369 -1.07303,-21.81324 -0.0457,-3.93983 -0.0108,-7.87903 0.0386,-11.81851 0,0 26.212,-13.35069 26.212,-13.35069 l 0,0 c 0.0378,3.91715 0.053,7.83385 0.0388,11.75121 0.0122,7.12744 0.0571,14.27973 0.93836,21.3632 1.18678,7.5918 3.68483,14.81627 5.34038,22.30438 3.44827,17.86632 1.39786,36.19597 2.29906,54.26896 0.54861,33.78233 0.73679,67.57505 0.21175,101.35906 -1.07206,30.96505 -3.95583,61.85779 -11.273,92.05137 -3.73367,15.85423 -4.84601,21.72476 -9.67454,37.46942 -8.69265,28.34461 -20.27012,55.83743 -34.66898,81.75605 -11.65522,18.34985 -12.72891,21.89742 -27.56358,37.87008 -22.88687,24.64257 -51.93111,41.71385 -79.36188,60.65578 -26.23025,17.57572 -53.77948,33.93646 -75.96348,56.70994 0,0 -27.580271,11.20961 -27.580271,11.20961 z"
       inkscape:connector-curvature="0" />
    <path
       style="fill:#000080;fill-opacity:1;stroke:#0d9ad2;stroke-width:0.94361037;stroke-opacity:1"
       id="path3011"
       d="m 667.53702,859.16143 c 0.82956,-16.92239 0.85246,-33.86191 2.58389,-50.74068 0.61274,-5.97263 1.4654,-11.92146 2.1981,-17.88219 4.73947,-37.08554 15.22647,-73.17564 23.90167,-109.54534 6.3618,-32.49436 11.879,-65.17144 15.94669,-97.99316 2.5169,-21.65951 2.9592,-43.45703 3.9765,-65.20637 0.9891,-18.52418 0.9366,-37.07207 1.201,-55.61154 -0.01,-13.36039 -0.1467,-26.72027 -0.2074,-40.0805 0.029,-11.54935 0,-23.09852 -0.023,-34.64784 0.1644,-13.18029 0.1654,-26.35938 0.04,-39.5398 -0.1474,-9.32835 -0.1423,-18.6575 -0.1795,-27.98667 -0.1,-9.28029 0.088,-18.56043 0.1518,-27.84038 -0.01,-6.43945 -0.096,-12.87826 -0.1546,-19.31733 0,0 25.4864,-12.17666 25.4864,-12.17666 l 0,0 c -0.059,6.48835 -0.149,12.97644 -0.1547,19.46516 0.064,9.23159 0.2525,18.46337 0.1518,27.69531 -0.037,9.38638 -0.033,18.77273 -0.1798,28.15831 -0.1244,13.16692 -0.1264,26.33251 0.044,39.49926 -0.014,11.55164 -0.037,23.10312 0.01,34.65475 -0.049,13.46185 -0.18,26.92315 -0.3759,40.38382 -0.054,18.61032 -0.7583,37.21309 -1.4084,55.81204 -1.0064,21.94219 -1.8391,43.91307 -4.6326,65.73776 -4.6079,33.00795 -10.6992,65.81964 -16.7332,98.6197 -8.754,36.26328 -19.31289,72.23699 -23.94219,109.25661 -0.6091,5.86286 -1.3606,11.71423 -1.8272,17.58857 -1.3046,16.42437 -0.8555,32.88457 0.05,49.31336 0,0 -25.91998,12.38381 -25.91998,12.38381 z"
       inkscape:connector-curvature="0" />
    <path
       style="fill:#1a1ad1;fill-opacity:0.94117856;stroke:#0d9ad2;stroke-width:2.02030516;stroke-opacity:1"
       d=""
       id="path3017"
       inkscape:connector-curvature="0"
       transform="translate(36.387486,217.15585)" />
    <path
       style="fill:#dfdff9;fill-opacity:0.99607843;stroke:#0d9ad2;stroke-width:2.02030516;stroke-opacity:1"
       d=""
       id="path3027"
       inkscape:connector-curvature="0"
       transform="translate(36.387486,217.15585)" />
    <path
       style="fill:#dfdff9;fill-opacity:0.99607843;stroke:#0d9ad2;stroke-width:2.02030516;stroke-opacity:1"
       d=""
       id="path3029"
       inkscape:connector-curvature="0"
       transform="translate(36.387486,217.15585)" />
    <path
       style="fill:#dfdff9;fill-opacity:0.99607843;stroke:#0d9ad2;stroke-width:2.02030516;stroke-opacity:1"
       d=""
       id="path3031"
       inkscape:connector-curvature="0"
       transform="translate(36.387486,217.15585)" />
    <path
       style="fill:#dfdff9;fill-opacity:0.99607843;stroke:#0d9ad2;stroke-width:2.02030516;stroke-opacity:1"
       d=""
       id="path3039"
       inkscape:connector-curvature="0"
       transform="translate(36.387486,217.15585)" />
    <path
       style="fill:#dfdff9;fill-opacity:0.99607843;stroke:#0d9ad2;stroke-width:2.02030516;stroke-opacity:1"
       d=""
       id="path3041"
       inkscape:connector-curvature="0"
       transform="translate(36.387486,217.15585)" />
    <path
       style="fill:#dfdff9;fill-opacity:0.99607843;stroke:#0d9ad2;stroke-width:2.02030516;stroke-opacity:1"
       d=""
       id="path3043"
       inkscape:connector-curvature="0"
       transform="translate(36.387486,217.15585)" />
    <path
       style="fill:#dfdff9;fill-opacity:0.99607843;stroke:#0d9ad2;stroke-width:2.02030516;stroke-opacity:1"
       d=""
       id="path3045"
       inkscape:connector-curvature="0"
       transform="translate(36.387486,217.15585)" />
    <path
       style="fill:#dfdff9;fill-opacity:0.99607843;stroke:#0d9ad2;stroke-width:2.02030516;stroke-opacity:1"
       d=""
       id="path3051"
       inkscape:connector-curvature="0"
       transform="translate(36.387486,217.15585)" />
    <path
       style="fill:#dfdff9;fill-opacity:0.99607843;stroke:#0d9ad2;stroke-width:2.02030516;stroke-opacity:1"
       d=""
       id="path3053"
       inkscape:connector-curvature="0"
       transform="translate(36.387486,217.15585)" />
    <path
       style="fill:#dfdff9;fill-opacity:0.99607843;stroke:#0d9ad2;stroke-width:2.02030516;stroke-opacity:1"
       d=""
       id="path3055"
       inkscape:connector-curvature="0"
       transform="translate(36.387486,217.15585)" />
    <path
       style="fill:#dfdff9;fill-opacity:0.99607843;stroke:#0d9ad2;stroke-width:2.02030516;stroke-opacity:1"
       d=""
       id="path3057"
       inkscape:connector-curvature="0"
       transform="translate(36.387486,217.15585)" />
    <path
       style="fill:#dfdff9;fill-opacity:0.99607843;stroke:#0d9ad2;stroke-width:2.02030516;stroke-opacity:1"
       d=""
       id="path3059"
       inkscape:connector-curvature="0"
       transform="translate(36.387486,217.15585)" />
    <path
       style="fill:#dfdff9;fill-opacity:0.99607843;stroke:#0d9ad2;stroke-width:2.02030516;stroke-opacity:1"
       d=""
       id="path3061"
       inkscape:connector-curvature="0"
       transform="translate(36.387486,217.15585)" />
    <path
       style="fill:#dfdff9;fill-opacity:0.99607843;stroke:#0d9ad2;stroke-width:2.02030516;stroke-opacity:1"
       d=""
       id="path3063"
       inkscape:connector-curvature="0"
       transform="translate(36.387486,217.15585)" />
    <path
       style="fill:#dfdff9;fill-opacity:0.99607843;stroke:#0d9ad2;stroke-opacity:1"
       id="path3071"
       d="m 302.15091,832.99841 c 3.18734,-9.65221 8.37151,-18.41441 13.73015,-26.98751 5.62004,-7.89065 10.58747,-16.20131 15.7882,-24.36467 6.59827,-9.80093 13.29661,-19.51813 20.57383,-28.82907 7.452,-9.32597 15.16731,-18.42115 22.25533,-28.03076 7.16853,-9.703 12.67822,-20.44289 17.92703,-31.26049 6.77963,-13.70354 12.49882,-27.83492 17.72079,-42.18986 5.78281,-16.71558 9.78068,-33.9641 14.88285,-50.88837 7.565,-24.02515 15.17331,-48.03387 22.06196,-72.26442 4.02281,-12.78776 5.68267,-26.0023 6.55222,-39.31467 0.35032,-10.47633 0.21586,-20.96201 0.11821,-31.44168 0.50989,-13.07836 5.25105,-25.36724 9.73531,-37.49801 4.46887,-9.68461 7.57988,-19.70511 9.61575,-30.14229 2.24231,-14.85847 4.2926,-29.74593 6.1438,-44.65827 1.42209,-11.52729 2.16334,-23.11692 2.50739,-34.72146 0.0746,-8.10866 0.97692,-16.17669 1.57265,-24.25689 1.21109,-10.07811 1.62158,-20.22156 2.44713,-30.33026 0,0 26.26025,-13.0628 26.26025,-13.0628 l 0,0 c -1.12328,10.02507 -1.31454,20.13959 -2.38311,30.17519 -0.35998,8.09668 -1.6199,16.12279 -1.6849,24.23182 -0.4574,11.81162 -1.49839,23.59048 -3.09303,35.30493 -1.85706,14.83563 -3.80003,29.65951 -5.4791,44.51637 -0.42376,2.47203 -1.20092,7.2829 -1.80888,9.77135 -1.78363,7.3007 -4.99687,14.13567 -7.94485,21.01099 -4.49191,11.73827 -9.06968,23.65488 -9.78214,36.33898 0.0209,10.56685 0.11059,21.13693 -0.2661,31.69946 -0.4853,13.70451 -2.71169,27.29071 -7.07068,40.32587 -7.43478,24.07967 -15.20399,48.06108 -22.15752,72.2866 -4.67335,16.97359 -8.66265,34.15115 -14.35047,50.83316 -5.04813,14.36839 -10.62082,28.47824 -17.15075,42.24826 -5.15163,11.0146 -10.69516,21.89258 -17.81337,31.79424 -6.93485,9.67174 -14.48675,18.83272 -21.9968,28.06028 -7.40163,9.09596 -14.15336,18.64157 -20.51894,28.48894 -5.34764,8.14486 -10.10483,16.67665 -16.01646,24.44638 -5.29681,8.12218 -10.47772,16.52775 -13.33173,25.86406 0,0 -27.04402,12.8446 -27.04402,12.8446 z"
       inkscape:connector-curvature="0" />
    <path
       style="fill:#dfdff9;fill-opacity:0.99607843;stroke:#0d9ad2;stroke-opacity:1"
       id="path3073"
       d="m 483.85476,839.01637 c 5.90345,-16.10375 16.23946,-30.28049 25.79379,-44.39498 9.83995,-13.98521 19.43483,-28.13879 28.88227,-42.39125 7.08659,-10.42211 13.1229,-21.41292 18.38876,-32.84671 7.62771,-16.73804 11.58701,-34.68773 15.09441,-52.64059 3.9526,-21.93063 6.1313,-44.12968 7.679,-66.34382 1.6667,-25.42598 1.8314,-50.90946 2.0186,-76.37822 -0.2631,-22.22758 0.045,-44.43752 1.4113,-66.62533 1.2339,-19.23219 0.5938,-38.51631 0.3044,-57.76839 -0.2082,-10.83492 -0.3951,-21.67005 -0.488,-32.50661 0.1177,-12.03551 0.1706,-24.07101 0.184,-36.10708 0.1238,-11.00158 1.0048,-21.94451 2.26,-32.86527 0.9869,-7.56323 1.2892,-15.18456 1.4201,-22.80295 0.1682,-6.4938 1.4444,-12.82292 3.523,-18.95524 0.4031,-0.92991 0.8063,-1.85981 1.2094,-2.78971 0,0 27.0419,-12.26215 27.0419,-12.26215 l 0,0 c -0.4614,0.83633 -0.9227,1.67266 -1.3841,2.50899 -2.2173,5.83038 -3.6697,11.87661 -4.0084,18.12784 -0.2015,7.72504 -0.4058,15.47277 -1.4072,23.14378 -1.5242,10.87336 -2.7621,21.76395 -2.8818,32.76279 0.013,11.96401 0.058,23.92765 0.2213,35.89067 -0.028,10.93083 -0.078,21.86159 -0.1,32.79243 -0.01,19.37368 -0.31,38.74323 -0.5149,58.11559 -1.6573,22.24966 -2.539,44.52469 -2.2343,66.84557 -0.099,25.47773 -0.1686,50.98249 -1.7016,76.42196 -1.625,22.2155 -3.2553,44.48236 -7.0975,66.44847 -3.6375,17.96306 -7.0214,36.10736 -14.3902,53.01383 -5.0151,11.59419 -10.7566,22.79879 -17.9837,33.19807 -9.70075,14.45176 -19.87913,28.57395 -29.85265,42.83742 -9.13246,13.47281 -18.58093,27.11468 -24.58028,42.32887 0,0 -26.8079,13.24202 -26.8079,13.24202 z"
       inkscape:connector-curvature="0" />
  </g>
</svg>
